<mxfile host="app.diagrams.net" modified="2024-02-12T02:32:08.196Z" agent="Mozilla/5.0 (Windows NT 10.0; Win64; x64) AppleWebKit/537.36 (KHTML, like Gecko) Chrome/121.0.0.0 Safari/537.36 Edg/121.0.0.0" etag="WTaVN0kHfEVj--upG0lZ" version="23.1.2" type="github">
  <diagram name="Página-1" id="jT7ZPlWgF6IqX4DdoQz3">
    <mxGraphModel dx="1763" dy="509" grid="1" gridSize="10" guides="1" tooltips="1" connect="1" arrows="1" fold="1" page="1" pageScale="1" pageWidth="827" pageHeight="1169" math="0" shadow="0">
      <root>
        <mxCell id="0" />
        <mxCell id="1" parent="0" />
        <mxCell id="f1oPZVSiDSi1oAFIV8Sl-20" value="&lt;span style=&quot;color: rgb(51, 51, 51); font-family: &amp;quot;Segoe UI&amp;quot;, system-ui, Roboto, &amp;quot;Helvetica Neue&amp;quot;, Arial, sans-serif, &amp;quot;Apple Color Emoji&amp;quot;, &amp;quot;Segoe UI Emoji&amp;quot;, &amp;quot;Segoe UI Symbol&amp;quot;, &amp;quot;Noto Color Emoji&amp;quot;; font-size: 13px; font-style: normal; font-variant-ligatures: normal; font-variant-caps: normal; font-weight: 400; letter-spacing: normal; orphans: 2; text-indent: 0px; text-transform: none; widows: 2; word-spacing: 0px; -webkit-text-stroke-width: 0px; text-decoration-thickness: initial; text-decoration-style: initial; text-decoration-color: initial; float: none; display: inline !important;&quot;&gt;_initial ⭢ _request&lt;/span&gt;" style="text;whiteSpace=wrap;html=1;strokeColor=#6c8ebf;align=left;verticalAlign=top;rounded=0;labelBackgroundColor=none;fillColor=#dae8fc;fillStyle=dashed;" vertex="1" parent="1">
          <mxGeometry x="-150" y="10" width="240" height="230" as="geometry" />
        </mxCell>
        <mxCell id="f1oPZVSiDSi1oAFIV8Sl-21" value="&lt;span style=&quot;border-color: var(--border-color); font-style: normal; font-variant-ligatures: normal; font-variant-caps: normal; font-weight: 400; letter-spacing: normal; orphans: 2; text-indent: 0px; text-transform: none; widows: 2; word-spacing: 0px; -webkit-text-stroke-width: 0px; text-decoration-thickness: initial; text-decoration-style: initial; text-decoration-color: initial; color: rgb(51, 51, 51); font-family: &amp;quot;Segoe UI&amp;quot;, system-ui, Roboto, &amp;quot;Helvetica Neue&amp;quot;, Arial, sans-serif, &amp;quot;Apple Color Emoji&amp;quot;, &amp;quot;Segoe UI Emoji&amp;quot;, &amp;quot;Segoe UI Symbol&amp;quot;, &amp;quot;Noto Color Emoji&amp;quot;; font-size: 13px; float: none; display: inline !important;&quot;&gt;_request ⭢ _count&lt;/span&gt;&lt;br style=&quot;border-color: var(--border-color); font-style: normal; font-variant-ligatures: normal; font-variant-caps: normal; font-weight: 400; letter-spacing: normal; orphans: 2; text-indent: 0px; text-transform: none; widows: 2; word-spacing: 0px; -webkit-text-stroke-width: 0px; text-decoration-thickness: initial; text-decoration-style: initial; text-decoration-color: initial; color: rgb(51, 51, 51); font-family: &amp;quot;Segoe UI&amp;quot;, system-ui, Roboto, &amp;quot;Helvetica Neue&amp;quot;, Arial, sans-serif, &amp;quot;Apple Color Emoji&amp;quot;, &amp;quot;Segoe UI Emoji&amp;quot;, &amp;quot;Segoe UI Symbol&amp;quot;, &amp;quot;Noto Color Emoji&amp;quot;; font-size: 13px;&quot;&gt;" style="text;whiteSpace=wrap;html=1;strokeColor=#82b366;rounded=0;align=left;labelBackgroundColor=none;fillColor=#d5e8d4;fillStyle=dashed;" vertex="1" parent="1">
          <mxGeometry x="-20" y="20" width="230" height="200" as="geometry" />
        </mxCell>
        <mxCell id="f1oPZVSiDSi1oAFIV8Sl-8" style="edgeStyle=orthogonalEdgeStyle;rounded=0;orthogonalLoop=1;jettySize=auto;html=1;entryX=0;entryY=0.5;entryDx=0;entryDy=0;" edge="1" parent="1" source="f1oPZVSiDSi1oAFIV8Sl-1" target="f1oPZVSiDSi1oAFIV8Sl-7">
          <mxGeometry relative="1" as="geometry" />
        </mxCell>
        <mxCell id="f1oPZVSiDSi1oAFIV8Sl-1" value="_initial" style="rounded=0;whiteSpace=wrap;html=1;" vertex="1" parent="1">
          <mxGeometry x="-120" y="120" width="80" height="40" as="geometry" />
        </mxCell>
        <mxCell id="f1oPZVSiDSi1oAFIV8Sl-3" value="_request" style="rounded=0;whiteSpace=wrap;html=1;" vertex="1" parent="1">
          <mxGeometry x="470" y="330" width="80" height="40" as="geometry" />
        </mxCell>
        <mxCell id="f1oPZVSiDSi1oAFIV8Sl-11" style="edgeStyle=orthogonalEdgeStyle;rounded=0;orthogonalLoop=1;jettySize=auto;html=1;exitX=1;exitY=0.5;exitDx=0;exitDy=0;entryX=0;entryY=0.5;entryDx=0;entryDy=0;" edge="1" parent="1" source="f1oPZVSiDSi1oAFIV8Sl-4" target="f1oPZVSiDSi1oAFIV8Sl-6">
          <mxGeometry relative="1" as="geometry" />
        </mxCell>
        <mxCell id="f1oPZVSiDSi1oAFIV8Sl-4" value="_count" style="rounded=0;whiteSpace=wrap;html=1;" vertex="1" parent="1">
          <mxGeometry x="120" y="120" width="80" height="40" as="geometry" />
        </mxCell>
        <mxCell id="f1oPZVSiDSi1oAFIV8Sl-18" style="edgeStyle=orthogonalEdgeStyle;rounded=0;orthogonalLoop=1;jettySize=auto;html=1;entryX=0.5;entryY=1;entryDx=0;entryDy=0;" edge="1" parent="1" source="f1oPZVSiDSi1oAFIV8Sl-5" target="f1oPZVSiDSi1oAFIV8Sl-14">
          <mxGeometry relative="1" as="geometry">
            <Array as="points">
              <mxPoint x="590" y="140" />
              <mxPoint x="590" y="200" />
              <mxPoint x="400" y="200" />
            </Array>
          </mxGeometry>
        </mxCell>
        <mxCell id="f1oPZVSiDSi1oAFIV8Sl-5" value="_code_adjust" style="rounded=0;whiteSpace=wrap;html=1;" vertex="1" parent="1">
          <mxGeometry x="480" y="120" width="80" height="40" as="geometry" />
        </mxCell>
        <mxCell id="f1oPZVSiDSi1oAFIV8Sl-13" style="edgeStyle=orthogonalEdgeStyle;rounded=0;orthogonalLoop=1;jettySize=auto;html=1;exitX=0.5;exitY=1;exitDx=0;exitDy=0;entryX=0.5;entryY=1;entryDx=0;entryDy=0;" edge="1" parent="1" source="f1oPZVSiDSi1oAFIV8Sl-6" target="f1oPZVSiDSi1oAFIV8Sl-4">
          <mxGeometry relative="1" as="geometry" />
        </mxCell>
        <mxCell id="f1oPZVSiDSi1oAFIV8Sl-15" style="edgeStyle=orthogonalEdgeStyle;rounded=0;orthogonalLoop=1;jettySize=auto;html=1;entryX=0;entryY=0.5;entryDx=0;entryDy=0;" edge="1" parent="1" source="f1oPZVSiDSi1oAFIV8Sl-6" target="f1oPZVSiDSi1oAFIV8Sl-14">
          <mxGeometry relative="1" as="geometry" />
        </mxCell>
        <mxCell id="f1oPZVSiDSi1oAFIV8Sl-6" value="_compare" style="rhombus;whiteSpace=wrap;html=1;" vertex="1" parent="1">
          <mxGeometry x="240" y="100" width="80" height="80" as="geometry" />
        </mxCell>
        <mxCell id="f1oPZVSiDSi1oAFIV8Sl-9" style="edgeStyle=orthogonalEdgeStyle;rounded=0;orthogonalLoop=1;jettySize=auto;html=1;exitX=1;exitY=0.5;exitDx=0;exitDy=0;" edge="1" parent="1" source="f1oPZVSiDSi1oAFIV8Sl-7" target="f1oPZVSiDSi1oAFIV8Sl-4">
          <mxGeometry relative="1" as="geometry" />
        </mxCell>
        <mxCell id="f1oPZVSiDSi1oAFIV8Sl-7" value="_request" style="rhombus;whiteSpace=wrap;html=1;" vertex="1" parent="1">
          <mxGeometry y="100" width="80" height="80" as="geometry" />
        </mxCell>
        <mxCell id="f1oPZVSiDSi1oAFIV8Sl-17" style="edgeStyle=orthogonalEdgeStyle;rounded=0;orthogonalLoop=1;jettySize=auto;html=1;exitX=1;exitY=0.5;exitDx=0;exitDy=0;entryX=0;entryY=0.5;entryDx=0;entryDy=0;" edge="1" parent="1" source="f1oPZVSiDSi1oAFIV8Sl-14" target="f1oPZVSiDSi1oAFIV8Sl-5">
          <mxGeometry relative="1" as="geometry" />
        </mxCell>
        <mxCell id="f1oPZVSiDSi1oAFIV8Sl-19" style="edgeStyle=orthogonalEdgeStyle;rounded=0;orthogonalLoop=1;jettySize=auto;html=1;exitX=0.5;exitY=0;exitDx=0;exitDy=0;entryX=0.5;entryY=0;entryDx=0;entryDy=0;" edge="1" parent="1" source="f1oPZVSiDSi1oAFIV8Sl-14" target="f1oPZVSiDSi1oAFIV8Sl-1">
          <mxGeometry relative="1" as="geometry" />
        </mxCell>
        <mxCell id="f1oPZVSiDSi1oAFIV8Sl-14" value="_code" style="rhombus;whiteSpace=wrap;html=1;" vertex="1" parent="1">
          <mxGeometry x="360" y="100" width="80" height="80" as="geometry" />
        </mxCell>
        <mxCell id="f1oPZVSiDSi1oAFIV8Sl-24" value="_count ⭢ _compare" style="text;whiteSpace=wrap;html=1;strokeColor=#d79b00;rounded=0;align=right;labelBackgroundColor=none;fillColor=#ffe6cc;fillStyle=dashed;verticalAlign=bottom;" vertex="1" parent="1">
          <mxGeometry x="100" y="90" width="230" height="160" as="geometry" />
        </mxCell>
        <mxCell id="f1oPZVSiDSi1oAFIV8Sl-25" value="_compare ⭢ _count" style="text;whiteSpace=wrap;html=1;strokeColor=#b85450;rounded=0;align=left;labelBackgroundColor=none;fillColor=#f8cecc;fillStyle=dashed;verticalAlign=bottom;" vertex="1" parent="1">
          <mxGeometry x="110" y="70" width="230" height="210" as="geometry" />
        </mxCell>
        <mxCell id="f1oPZVSiDSi1oAFIV8Sl-27" value="_code_adjust ⭢ _code" style="text;whiteSpace=wrap;html=1;strokeColor=#9673a6;rounded=0;align=right;labelBackgroundColor=none;fillColor=#e1d5e7;fillStyle=dashed;verticalAlign=top;" vertex="1" parent="1">
          <mxGeometry x="350" y="70" width="270" height="150" as="geometry" />
        </mxCell>
        <mxCell id="f1oPZVSiDSi1oAFIV8Sl-29" value="_compare ⭢ _code" style="text;whiteSpace=wrap;html=1;strokeColor=#10739e;rounded=0;align=left;labelBackgroundColor=none;fillColor=#b1ddf0;fillStyle=dashed;verticalAlign=top;" vertex="1" parent="1">
          <mxGeometry x="220" y="10" width="230" height="180" as="geometry" />
        </mxCell>
        <mxCell id="f1oPZVSiDSi1oAFIV8Sl-30" value="_code ⭢ _initial" style="text;whiteSpace=wrap;html=1;strokeColor=#9673a6;rounded=0;align=left;labelBackgroundColor=none;fillColor=#e1d5e7;fillStyle=dashed;verticalAlign=bottom;" vertex="1" parent="1">
          <mxGeometry x="-140" y="60" width="600" height="170" as="geometry" />
        </mxCell>
      </root>
    </mxGraphModel>
  </diagram>
</mxfile>
